<svg width="17" height="17" viewBox="0 0 17 17" fill="none" xmlns="http://www.w3.org/2000/svg">
  <path d="M6.375 3.825V6.375H3.825V3.825H6.375ZM7.65 2.55H2.55V7.65H7.65V2.55ZM6.375 10.625V13.175H3.825V10.625H6.375ZM7.65 9.35H2.55V14.45H7.65V9.35ZM13.175 3.825V6.375H10.625V3.825H13.175ZM14.45 2.55H9.35V7.65H14.45V2.55ZM9.35 9.35H10.625V10.625H9.35V9.35ZM10.625 10.625H11.9V11.9H10.625V10.625ZM11.9 9.35H13.175V10.625H11.9V9.35ZM9.35 11.9H10.625V13.175H9.35V11.9ZM10.625 13.175H11.9V14.45H10.625V13.175ZM11.9 11.9H13.175V13.175H11.9V11.9ZM13.175 10.625H14.45V11.9H13.175V10.625ZM13.175 13.175H14.45V14.45H13.175V13.175ZM17 4.25H15.3V1.7H12.75V0H17V4.25ZM17 17V12.75H15.3V15.3H12.75V17H17ZM0 17H4.25V15.3H1.7V12.75H0V17ZM0 0V4.25H1.7V1.7H4.25V0H0Z" fill="white"/>
</svg>
