<svg width="283" height="141" viewBox="0 0 283 141" fill="none" xmlns="http://www.w3.org/2000/svg">
  <path d="M38.55 0.999998C38.85 0.999998 39.1 1.11666 39.3 1.35C39.5333 1.55 39.65 1.78333 39.65 2.05C39.65 2.25 39.6 2.45 39.5 2.65L26.9 23.5V34.65C26.9 35.0167 26.7667 35.3333 26.5 35.6C26.2333 35.8667 25.9167 36 25.55 36H14.9C14.5333 36 14.2167 35.8667 13.95 35.6C13.6833 35.3333 13.55 35.0167 13.55 34.65V23.5L1 2.65C0.9 2.45 0.85 2.26666 0.85 2.1C0.85 1.8 0.95 1.55 1.15 1.35C1.38333 1.11666 1.65 0.999998 1.95 0.999998H12.5C13.4333 0.999998 14.1167 1.38333 14.55 2.15L20.2 12.05L26 2.25C26.5 1.41666 27.2 0.999998 28.1 0.999998H38.55ZM79.3305 21.55C79.3305 26.65 77.6305 30.4167 74.2305 32.85C70.8638 35.2833 66.3638 36.5 60.7305 36.5C55.0971 36.5 50.5805 35.2833 47.1805 32.85C43.8138 30.4167 42.1305 26.6167 42.1305 21.45V15.55C42.1305 12.15 42.9305 9.33333 44.5305 7.1C46.1638 4.83333 48.3805 3.16667 51.1805 2.1C53.9805 1.03333 57.1638 0.499998 60.7305 0.499998C64.2971 0.499998 67.4638 1.03333 70.2305 2.1C73.0305 3.16667 75.2471 4.81666 76.8805 7.05C78.5138 9.28333 79.3305 12.0833 79.3305 15.45V21.55ZM55.6305 22.5C55.6305 23.8667 56.0805 24.9167 56.9805 25.65C57.9138 26.3833 59.1638 26.75 60.7305 26.75C62.2971 26.75 63.5305 26.3833 64.4305 25.65C65.3638 24.8833 65.8305 23.8167 65.8305 22.45V14.55C65.8305 13.1833 65.3638 12.1333 64.4305 11.4C63.5305 10.6333 62.2971 10.25 60.7305 10.25C59.1638 10.25 57.9138 10.6167 56.9805 11.35C56.0805 12.0833 55.6305 13.1333 55.6305 14.5V22.5ZM101.211 36.5C95.6109 36.5 91.1609 35.2833 87.8609 32.85C84.5943 30.4167 82.9609 26.6167 82.9609 21.45V2.35C82.9609 1.98333 83.0943 1.66667 83.3609 1.4C83.6276 1.13333 83.9443 0.999998 84.3109 0.999998H94.7609C95.1276 0.999998 95.4443 1.13333 95.7109 1.4C95.9776 1.66667 96.1109 1.98333 96.1109 2.35V22.25C96.1109 23.6167 96.5609 24.6667 97.4609 25.4C98.3943 26.1333 99.6443 26.5 101.211 26.5C102.778 26.5 104.011 26.1333 104.911 25.4C105.844 24.6667 106.311 23.6167 106.311 22.25V2.35C106.311 1.98333 106.444 1.66667 106.711 1.4C106.978 1.13333 107.294 0.999998 107.661 0.999998H118.111C118.478 0.999998 118.794 1.13333 119.061 1.4C119.328 1.66667 119.461 1.98333 119.461 2.35V21.45C119.461 26.6167 117.811 30.4167 114.511 32.85C111.244 35.2833 106.811 36.5 101.211 36.5ZM161.541 34.45C161.608 34.5833 161.641 34.7333 161.641 34.9C161.641 35.2 161.525 35.4667 161.291 35.7C161.091 35.9 160.841 36 160.541 36H149.191C148.725 36 148.291 35.8833 147.891 35.65C147.525 35.4167 147.258 35.1167 147.091 34.75L142.691 24.85H138.491V34.65C138.491 35.0167 138.358 35.3333 138.091 35.6C137.825 35.8667 137.508 36 137.141 36H126.341C125.975 36 125.658 35.8667 125.391 35.6C125.125 35.3333 124.991 35.0167 124.991 34.65V2.35C124.991 1.98333 125.125 1.66667 125.391 1.4C125.658 1.13333 125.975 0.999998 126.341 0.999998H145.791C148.791 0.999998 151.408 1.48333 153.641 2.45C155.908 3.41667 157.641 4.81667 158.841 6.65C160.041 8.48333 160.641 10.6333 160.641 13.1C160.641 17.6333 158.891 20.9167 155.391 22.95L161.541 34.45ZM144.741 15.6C145.475 15.6 146.041 15.3667 146.441 14.9C146.841 14.4 147.041 13.7833 147.041 13.05C147.041 12.3167 146.841 11.6833 146.441 11.15C146.075 10.5833 145.508 10.3 144.741 10.3H138.491V15.6H144.741ZM191.772 14.5C192.139 14.5 192.455 14.6333 192.722 14.9C192.989 15.1667 193.122 15.4833 193.122 15.85V22.95C193.122 23.3167 192.989 23.6333 192.722 23.9C192.455 24.1667 192.139 24.3 191.772 24.3H172.622C172.255 24.3 171.939 24.1667 171.672 23.9C171.405 23.6333 171.272 23.3167 171.272 22.95V15.85C171.272 15.4833 171.405 15.1667 171.672 14.9C171.939 14.6333 172.255 14.5 172.622 14.5H191.772ZM36.55 77.75C36.9167 77.75 37.2333 77.8833 37.5 78.15C37.7667 78.4167 37.9 78.7333 37.9 79.1V86.65C37.9 87.0167 37.7667 87.3333 37.5 87.6C37.2333 87.8667 36.9167 88 36.55 88H7.35C6.98333 88 6.66667 87.8667 6.4 87.6C6.13333 87.3333 6 87.0167 6 86.65V54.35C6 53.9833 6.13333 53.6667 6.4 53.4C6.66667 53.1333 6.98333 53 7.35 53H18.15C18.5167 53 18.8333 53.1333 19.1 53.4C19.3667 53.6667 19.5 53.9833 19.5 54.35V77.75H36.55ZM79.3305 73.55C79.3305 78.65 77.6305 82.4167 74.2305 84.85C70.8638 87.2833 66.3638 88.5 60.7305 88.5C55.0971 88.5 50.5805 87.2833 47.1805 84.85C43.8138 82.4167 42.1305 78.6167 42.1305 73.45V67.55C42.1305 64.15 42.9305 61.3333 44.5305 59.1C46.1638 56.8333 48.3805 55.1667 51.1805 54.1C53.9805 53.0333 57.1638 52.5 60.7305 52.5C64.2971 52.5 67.4638 53.0333 70.2305 54.1C73.0305 55.1667 75.2471 56.8167 76.8805 59.05C78.5138 61.2833 79.3305 64.0833 79.3305 67.45V73.55ZM55.6305 74.5C55.6305 75.8667 56.0805 76.9167 56.9805 77.65C57.9138 78.3833 59.1638 78.75 60.7305 78.75C62.2971 78.75 63.5305 78.3833 64.4305 77.65C65.3638 76.8833 65.8305 75.8167 65.8305 74.45V66.55C65.8305 65.1833 65.3638 64.1333 64.4305 63.4C63.5305 62.6333 62.2971 62.25 60.7305 62.25C59.1638 62.25 57.9138 62.6167 56.9805 63.35C56.0805 64.0833 55.6305 65.1333 55.6305 66.5V74.5ZM119.511 53C119.811 53 120.061 53.1167 120.261 53.35C120.494 53.55 120.611 53.7833 120.611 54.05C120.611 54.25 120.561 54.45 120.461 54.65L107.861 75.5V86.65C107.861 87.0167 107.728 87.3333 107.461 87.6C107.194 87.8667 106.878 88 106.511 88H95.8609C95.4943 88 95.1776 87.8667 94.9109 87.6C94.6443 87.3333 94.5109 87.0167 94.5109 86.65V75.5L81.9609 54.65C81.8609 54.45 81.8109 54.2667 81.8109 54.1C81.8109 53.8 81.9109 53.55 82.1109 53.35C82.3443 53.1167 82.6109 53 82.9109 53H93.4609C94.3943 53 95.0776 53.3833 95.5109 54.15L101.161 64.05L106.961 54.25C107.461 53.4167 108.161 53 109.061 53H119.511ZM134.491 86.3C134.058 87.4333 133.308 88 132.241 88H122.791C122.491 88 122.225 87.9 121.991 87.7C121.791 87.4667 121.691 87.2 121.691 86.9L121.741 86.6L132.641 54.65C132.775 54.2167 133.025 53.8333 133.391 53.5C133.758 53.1667 134.258 53 134.891 53H148.791C149.425 53 149.925 53.1667 150.291 53.5C150.658 53.8333 150.908 54.2167 151.041 54.65L161.941 86.6L161.991 86.9C161.991 87.2 161.875 87.4667 161.641 87.7C161.441 87.9 161.191 88 160.891 88H151.441C150.375 88 149.625 87.4333 149.191 86.3L147.941 82.8H135.741L134.491 86.3ZM141.841 62.65L138.291 73.05H145.391L141.841 62.65ZM198.472 77.75C198.839 77.75 199.155 77.8833 199.422 78.15C199.689 78.4167 199.822 78.7333 199.822 79.1V86.65C199.822 87.0167 199.689 87.3333 199.422 87.6C199.155 87.8667 198.839 88 198.472 88H169.272C168.905 88 168.589 87.8667 168.322 87.6C168.055 87.3333 167.922 87.0167 167.922 86.65V54.35C167.922 53.9833 168.055 53.6667 168.322 53.4C168.589 53.1333 168.905 53 169.272 53H180.072C180.439 53 180.755 53.1333 181.022 53.4C181.289 53.6667 181.422 53.9833 181.422 54.35V77.75H198.472ZM239.902 53C240.269 53 240.586 53.1333 240.852 53.4C241.119 53.6667 241.252 53.9833 241.252 54.35V62.4C241.252 62.7667 241.119 63.0833 240.852 63.35C240.586 63.6167 240.269 63.75 239.902 63.75H229.152V86.65C229.152 87.0167 229.019 87.3333 228.752 87.6C228.486 87.8667 228.169 88 227.802 88H217.502C217.136 88 216.819 87.8667 216.552 87.6C216.286 87.3333 216.152 87.0167 216.152 86.65V63.75H205.402C205.036 63.75 204.719 63.6167 204.452 63.35C204.186 63.0833 204.052 62.7667 204.052 62.4V54.35C204.052 53.9833 204.186 53.6667 204.452 53.4C204.719 53.1333 205.036 53 205.402 53H239.902ZM281.433 53C281.733 53 281.983 53.1167 282.183 53.35C282.416 53.55 282.533 53.7833 282.533 54.05C282.533 54.25 282.483 54.45 282.383 54.65L269.783 75.5V86.65C269.783 87.0167 269.649 87.3333 269.383 87.6C269.116 87.8667 268.799 88 268.433 88H257.783C257.416 88 257.099 87.8667 256.833 87.6C256.566 87.3333 256.433 87.0167 256.433 86.65V75.5L243.883 54.65C243.783 54.45 243.733 54.2667 243.733 54.1C243.733 53.8 243.833 53.55 244.033 53.35C244.266 53.1167 244.533 53 244.833 53H255.383C256.316 53 256.999 53.3833 257.433 54.15L263.083 64.05L268.883 54.25C269.383 53.4167 270.083 53 270.983 53H281.433ZM25.5 128.1C25.8667 128.1 26.1833 128.233 26.45 128.5C26.7167 128.767 26.85 129.083 26.85 129.45V138.65C26.85 139.017 26.7167 139.333 26.45 139.6C26.1833 139.867 25.8667 140 25.5 140H15C14.6333 140 14.3167 139.867 14.05 139.6C13.7833 139.333 13.65 139.017 13.65 138.65V129.45C13.65 129.083 13.7833 128.767 14.05 128.5C14.3167 128.233 14.6333 128.1 15 128.1H25.5ZM63.4805 117.7C67.1471 118.1 70.0805 118.75 72.2805 119.65C74.5138 120.55 76.1305 121.733 77.1305 123.2C78.1305 124.667 78.6305 126.5 78.6305 128.7C78.6305 131.1 77.8471 133.2 76.2805 135C74.7471 136.767 72.6138 138.133 69.8805 139.1C67.1471 140.033 64.0305 140.5 60.5305 140.5C56.6305 140.5 53.3305 140.017 50.6305 139.05C47.9305 138.083 45.9138 136.8 44.5805 135.2C43.2471 133.567 42.5805 131.783 42.5805 129.85C42.5805 129.517 42.6805 129.25 42.8805 129.05C43.1138 128.85 43.3971 128.75 43.7305 128.75H53.9805C54.6805 128.75 55.2471 128.967 55.6805 129.4C56.2471 129.933 56.8805 130.3 57.5805 130.5C58.2805 130.667 59.2638 130.75 60.5305 130.75C63.6971 130.75 65.2805 130.267 65.2805 129.3C65.2805 128.9 65.0638 128.567 64.6305 128.3C64.2305 128 63.4971 127.75 62.4305 127.55C61.3971 127.317 59.8638 127.083 57.8305 126.85C53.2638 126.317 49.7638 125.183 47.3305 123.45C44.8971 121.683 43.6805 119.2 43.6805 116C43.6805 113.733 44.3638 111.733 45.7305 110C47.0971 108.267 49.0305 106.917 51.5305 105.95C54.0638 104.983 56.9971 104.5 60.3305 104.5C63.7971 104.5 66.8305 105.05 69.4305 106.15C72.0305 107.217 74.0138 108.55 75.3805 110.15C76.7471 111.75 77.4305 113.317 77.4305 114.85C77.4305 115.183 77.3138 115.45 77.0805 115.65C76.8805 115.85 76.5971 115.95 76.2305 115.95H65.4805C64.9138 115.95 64.3971 115.75 63.9305 115.35C63.5638 115.017 63.1305 114.75 62.6305 114.55C62.1305 114.35 61.3638 114.25 60.3305 114.25C58.0971 114.25 56.9805 114.717 56.9805 115.65C56.9805 116.15 57.4138 116.55 58.2805 116.85C59.1471 117.117 60.8805 117.4 63.4805 117.7ZM106.311 105C109.444 105 112.178 105.533 114.511 106.6C116.844 107.667 118.628 109.117 119.861 110.95C121.094 112.783 121.711 114.833 121.711 117.1C121.711 120.833 120.544 123.767 118.211 125.9C115.878 128 111.911 129.05 106.311 129.05H99.7109V138.65C99.7109 139.017 99.5776 139.333 99.3109 139.6C99.0443 139.867 98.7276 140 98.3609 140H87.6109C87.2443 140 86.9276 139.867 86.6609 139.6C86.3943 139.333 86.2609 139.017 86.2609 138.65V106.35C86.2609 105.983 86.3943 105.667 86.6609 105.4C86.9276 105.133 87.2443 105 87.6109 105H106.311ZM106.111 119.8C106.911 119.8 107.544 119.567 108.011 119.1C108.478 118.6 108.711 117.95 108.711 117.15C108.711 116.317 108.478 115.633 108.011 115.1C107.544 114.567 106.911 114.3 106.111 114.3H99.7609V119.8H106.111ZM134.491 138.3C134.058 139.433 133.308 140 132.241 140H122.791C122.491 140 122.225 139.9 121.991 139.7C121.791 139.467 121.691 139.2 121.691 138.9L121.741 138.6L132.641 106.65C132.775 106.217 133.025 105.833 133.391 105.5C133.758 105.167 134.258 105 134.891 105H148.791C149.425 105 149.925 105.167 150.291 105.5C150.658 105.833 150.908 106.217 151.041 106.65L161.941 138.6L161.991 138.9C161.991 139.2 161.875 139.467 161.641 139.7C161.441 139.9 161.191 140 160.891 140H151.441C150.375 140 149.625 139.433 149.191 138.3L147.941 134.8H135.741L134.491 138.3ZM141.841 114.65L138.291 125.05H145.391L141.841 114.65ZM177.572 126.5C177.572 127.867 178.022 128.917 178.922 129.65C179.855 130.383 181.105 130.75 182.672 130.75C184.072 130.75 185.105 130.517 185.772 130.05C186.439 129.583 187.005 128.883 187.472 127.95C187.905 127.083 188.489 126.65 189.222 126.65H200.022C200.322 126.65 200.572 126.767 200.772 127C201.005 127.2 201.122 127.45 201.122 127.75C201.122 129.783 200.439 131.783 199.072 133.75C197.705 135.683 195.622 137.3 192.822 138.6C190.055 139.867 186.672 140.5 182.672 140.5C179.105 140.5 175.922 139.967 173.122 138.9C170.355 137.8 168.155 136.133 166.522 133.9C164.889 131.633 164.072 128.817 164.072 125.45V119.55C164.072 116.183 164.889 113.383 166.522 111.15C168.155 108.883 170.355 107.217 173.122 106.15C175.922 105.05 179.105 104.5 182.672 104.5C186.672 104.5 190.055 105.15 192.822 106.45C195.622 107.717 197.705 109.333 199.072 111.3C200.439 113.233 201.122 115.217 201.122 117.25C201.122 117.55 201.005 117.817 200.772 118.05C200.572 118.25 200.322 118.35 200.022 118.35H189.222C188.489 118.35 187.905 117.917 187.472 117.05C187.005 116.117 186.439 115.417 185.772 114.95C185.105 114.483 184.072 114.25 182.672 114.25C181.105 114.25 179.855 114.617 178.922 115.35C178.022 116.083 177.572 117.133 177.572 118.5V126.5ZM238.852 130.25C239.219 130.25 239.536 130.383 239.802 130.65C240.069 130.917 240.202 131.233 240.202 131.6V138.65C240.202 139.017 240.069 139.333 239.802 139.6C239.536 139.867 239.219 140 238.852 140H207.252C206.886 140 206.569 139.867 206.302 139.6C206.036 139.333 205.902 139.017 205.902 138.65V106.35C205.902 105.983 206.036 105.667 206.302 105.4C206.569 105.133 206.886 105 207.252 105H238.352C238.719 105 239.036 105.133 239.302 105.4C239.569 105.667 239.702 105.983 239.702 106.35V113.4C239.702 113.767 239.569 114.083 239.302 114.35C239.036 114.617 238.719 114.75 238.352 114.75H218.902V117.9H235.602C235.969 117.9 236.286 118.033 236.552 118.3C236.819 118.567 236.952 118.883 236.952 119.25V125.75C236.952 126.117 236.819 126.433 236.552 126.7C236.286 126.967 235.969 127.1 235.602 127.1H218.902V130.25H238.852Z" fill="#fff"/>
</svg>
